<?xml version="1.0" encoding="UTF-8"?>
<!DOCTYPE svg PUBLIC "-//W3C//DTD SVG 1.1//EN" "http://www.w3.org/Graphics/SVG/1.1/DTD/svg11.dtd">
<!-- Creator: CorelDRAW 2021 (64-Bit) -->
<svg xmlns="http://www.w3.org/2000/svg" xml:space="preserve" width="55.3218mm" height="9.708mm" version="1.1" style="shape-rendering:geometricPrecision; text-rendering:geometricPrecision; image-rendering:optimizeQuality; fill-rule:evenodd; clip-rule:evenodd"
viewBox="0 0 5070.88 889.85"
 xmlns:xlink="http://www.w3.org/1999/xlink"
 xmlns:xodm="http://www.corel.com/coreldraw/odm/2003">
 <defs>
  <style type="text/css">
   <![CDATA[
    .fil0 {fill:white;fill-rule:nonzero}
   ]]>
  </style>
 </defs>
 <g id="Layer_x0020_1">
  <metadata id="CorelCorpID_0Corel-Layer"/>
  <path class="fil0" d="M567.99 889.85c-79.83,-71.07 -130.1,-174.62 -130.1,-289.9 0,-214.3 173.73,-388.04 388.03,-388.04 138.68,0 260.36,72.75 328.98,182.17 -70.41,-80.43 -173.86,-131.23 -289.17,-131.23 -212.18,0 -384.18,172 -384.18,384.19 0,92.1 32.4,176.63 86.45,242.81zm346.74 -27.52c-51.21,-14.19 -88.81,-61.14 -88.81,-116.87 0,-66.98 54.29,-121.26 121.26,-121.26 42.26,0 79.46,21.6 101.17,54.37 -19.97,-17.26 -46.01,-27.7 -74.48,-27.7 -62.95,0 -113.98,51.04 -113.98,113.99 0,41.29 21.96,77.46 54.85,97.46zm455.16 -304.26c-5.26,10.4 -14.31,15.76 -27.16,16.08l-46.86 -0.49c-14.19,-0.34 -17.99,-7.13 -11.39,-20.47l156.86 -297.89c7.76,-14.31 26.02,-21.44 54.74,-21.44 28.74,0 46.56,6.79 53.48,20.47l120.39 230.35 120.63 -229.37c7.28,-14.31 25.24,-21.44 53.99,-21.44 28.71,0 46.7,6.79 53.98,20.47l154.85 298.86c7.25,13.63 2.96,20.61 -12.95,20.95l-45.11 0c-12.49,-0.34 -21.37,-5.67 -26.58,-16.08l-108.99 -219.39c-10.14,-26 -20.2,-26 -30.17,0l-104.89 209.37c-14.87,17.39 -29.49,26.07 -43.85,26.07l-27.88 0c-13.17,0 -26.02,-8.37 -38.49,-25.08l-103.93 -210.38c-9.99,-23.9 -19.86,-23.9 -29.66,0l-111 219.38 0 0.03zm844.41 -120.42l0 43.15c0,16.56 8.74,24.86 26.1,24.86l287.92 0c24.84,0 37.23,11.27 37.23,33.91 0,22.72 -13.35,34.1 -40.02,34.1l-352.02 0c-31.6,0 -47.39,-13.17 -47.39,-39.49l0 -260.35c0,-26.65 15.03,-39.99 45.11,-39.99l357.09 0c24.84,-0.31 37.23,10.82 37.23,33.42 0,23.06 -12.23,34.27 -36.72,33.61l-288.43 0c-17.39,0.97 -26.1,8.97 -26.1,23.91l0 45.59 143.94 0c30.27,0.63 45.37,11.91 45.37,33.89 0,22.89 -15.62,34.04 -46.88,33.39l-142.43 0zm630.8 0c-31.09,0.65 -46.64,-10.5 -46.64,-33.39 0,-21.98 14.87,-33.23 44.63,-33.91l92.98 0c25.34,0 41.13,-5.19 47.39,-15.6 1.36,-2.27 2.47,-4.92 3.29,-7.93 0.85,-2.98 1.29,-6.54 1.29,-10.6 0,-8.63 -1.84,-14.91 -5.48,-18.89 -3.64,-3.98 -11.16,-7.35 -22.63,-10.11 -8.39,-1.83 -16.9,-3.04 -25.46,-3.64 -11.61,-0.91 -23.24,-1.48 -34.88,-1.72l-146 0c-20.41,0 -30.62,8.27 -30.62,24.86l0 212.84c1.16,23.03 -13.36,34.44 -43.6,34.1 -29.74,0 -44.63,-11.38 -44.63,-34.1l0 -262.8c0,-28.3 16.49,-42.59 49.42,-42.93l213.91 0c75.83,0.34 128.14,15.87 156.89,46.56 13.82,15.94 20.75,34.54 20.75,55.83 -2.69,39.96 -23.98,63.79 -63.85,71.42 39.53,6.98 60.31,28.53 62.35,64.58l0 67.33c0,22.72 -14.87,34.1 -44.62,34.1 -29.4,0 -43.75,-11.38 -43.07,-34.1l0 -67.78c0.99,-3.29 1.09,-6.78 0.24,-10.12 -0.72,-2.78 -1.84,-5.44 -3.29,-7.93 -6.26,-10.74 -22.07,-16.08 -47.39,-16.08l-90.97 0zm738.77 101.91c0,22.72 -12.42,34.26 -37.28,34.58l-181.43 0c-66.06,0 -119.56,-15.53 -160.43,-46.56 -40.21,-30.87 -60.34,-71.98 -60.34,-123.32 0,-50.69 20.13,-91.51 60.34,-122.38 41.57,-31.38 94.54,-47.39 158.9,-48.02l182.96 0c24.86,-0.34 37.28,10.79 37.28,33.39 0,23.04 -12.27,34.27 -36.75,33.61l-14.72 0.97 -168.79 0c-38.31,0.68 -69.85,10.5 -94.51,29.52 -24.35,19.67 -36.5,43.94 -36.5,72.91 0,43.21 22.72,73.36 68.18,90.43 19.95,7.99 41.37,11.72 62.86,10.96l182.96 0c24.86,0 37.28,11.3 37.28,33.91zm509.12 -262.34l0 127.03c1.03,51 -18.84,92.13 -59.56,123.32 -40.2,31.04 -93.44,46.56 -159.63,46.56 -66.08,0 -119.56,-15.53 -160.44,-46.56 -40.21,-30.85 -60.32,-71.98 -60.32,-123.32l0 -136.06c0,-21.92 14.87,-33.22 44.63,-33.85 30.21,-0.34 44.77,10.96 43.56,33.88l0 136.03c0,43.21 22.72,73.36 68.17,90.41 22.82,7.66 44.28,11.48 64.41,11.48 51.35,0 89.25,-15.28 113.77,-45.84 5.92,-7.78 10.33,-16.42 13.29,-25.83 3.03,-9.94 4.2,-20.34 3.45,-30.7l0 -135.58c-1.02,-22.89 13.5,-34.19 43.58,-33.85 29.74,0.63 44.63,11.93 44.63,33.88l0.48 9zm280.04 160.43c-31.09,0.65 -46.64,-10.5 -46.64,-33.39 0,-21.98 14.87,-33.23 44.62,-33.91l92.98 0c25.34,0 41.16,-5.19 47.39,-15.6 1.37,-2.27 2.47,-4.92 3.3,-7.93 0.85,-2.98 1.28,-6.54 1.28,-10.6 0,-8.63 -1.81,-14.91 -5.45,-18.89 -3.64,-3.98 -11.18,-7.35 -22.68,-10.11 -8.39,-1.83 -16.9,-3.04 -25.46,-3.64 -11.6,-0.91 -23.21,-1.48 -34.85,-1.72l-146 0c-20.44,0 -30.62,8.27 -30.62,24.86l0 212.84c1.16,23.03 -13.36,34.44 -43.61,34.1 -29.73,0 -44.62,-11.38 -44.62,-34.1l0 -262.8c0,-28.3 16.49,-42.59 49.42,-42.93l213.9 0c75.87,0.34 128.15,15.87 156.89,46.56 13.82,15.94 20.79,34.54 20.79,55.83 -2.72,39.96 -24.02,63.79 -63.88,71.42 39.52,6.98 60.31,28.53 62.35,64.58l0 67.33c0,22.72 -14.89,34.1 -44.62,34.1 -29.4,0 -43.73,-11.38 -43.05,-34.1l0 -67.78c1,-3.29 1.07,-6.79 0.22,-10.12 -0.72,-2.78 -1.84,-5.44 -3.3,-7.93 -6.23,-10.74 -22.04,-16.08 -47.39,-16.08l-90.94 0 -0.03 0zm528.4 102.63c0.34,22.24 -14.89,33.37 -45.59,33.37 -30.61,0 -44.87,-11.4 -42.85,-34.13l0 -131.4 -4.58 -4.36c-1.65,-1.65 -4.24,-4.2 -7.71,-7.69 -4.83,-4.86 -9.68,-9.69 -14.56,-14.5 -20.81,-20.58 -41.35,-41.43 -61.6,-62.55 -17.78,-18.37 -35.51,-36.77 -53.24,-55.2 -14.19,-16.42 -10.04,-26.24 12.42,-29.52l28.13 0c24.15,-0.65 43.5,6.67 58.03,21.95l74.26 77.53c10.14,7.96 20.37,7.96 30.68,0l77.05 -78.98c10.28,-13.97 27.28,-20.98 50.93,-20.98l38.78 0c29.22,0.66 36.57,7.64 22.04,20.98l-162.2 153.32 0 132.13 0 0.02z"/>
  <path id="Combined_x0020_Shape-1.svg" class="fil0" d="M153.09 98.79c-27.59,37.41 557.85,492.87 693.08,581.59 -2.16,3.12 -4.18,6.33 -6.05,9.65 -88.57,-42.65 -195.72,-113.98 -349.02,-219.93 -302.89,-209.35 -521.22,-415.88 -487.7,-461.23 32.8,-44.37 294.7,81.99 589.76,283.6 -0.74,0.54 -1.48,1.09 -2.21,1.65 -87.5,-48.13 -416.42,-224.33 -437.86,-195.33zm1312.69 695.54c0,11.42 -4.32,20.52 -12.98,27.29 -8.66,6.74 -21.03,10.14 -37.1,10.14l-117.79 0 0 -163.46 117.13 0c33.83,0 50.74,12.17 50.74,36.55l0 89.49zm-33.25 -7.83l0 -75.12c0,-13.07 -9.29,-19.59 -27.87,-19.59l-73 0 0 116.26 73 0c18.58,0 27.87,-7.18 27.87,-21.56zm360.78 -24.5l-110.16 0 0 27.6c0,12.2 9.83,18.29 29.52,18.29l87.26 0 0 23.87 -96.43 0c-16.64,0 -29.59,-2.8 -38.86,-8.34 -10.18,-6.21 -15.28,-14.97 -15.28,-26.3l0 -91.94c0,-11.3 4.52,-20.2 13.58,-26.67 9.05,-6.5 21.54,-9.73 37.52,-9.73l99.46 0 0 23.84 -87.6 0c-19.45,0 -29.18,5.99 -29.18,17.94l0 27.94 110.16 0 0 23.5zm378.31 -93.56l-76.9 150.72c-5.1,9.9 -13.1,14.87 -23.96,14.87 -11.08,0 -19.16,-4.97 -24.25,-14.87l-76.93 -150.72 35.82 0 65.04 132.27 65.68 -132.27 35.51 0zm306.11 93.56l-110.18 0 0 27.6c0,12.2 9.84,18.29 29.53,18.29l87.26 0 0 23.87 -96.4 0c-16.66,0 -29.62,-2.8 -38.9,-8.34 -10.18,-6.21 -15.28,-14.97 -15.28,-26.3l0 -91.94c0,-11.3 4.51,-20.2 13.58,-26.67 9.07,-6.5 21.58,-9.73 37.52,-9.73l99.48 0 0 23.84 -87.6 0c-19.45,0 -29.19,5.99 -29.19,17.94l0 27.94 110.18 0 0 23.5zm348.57 69.75l-89.8 0c-19.72,0 -34.8,-2.91 -45.35,-8.75 -10.5,-5.82 -15.77,-15.99 -15.77,-30.47l0 -124.24 33.79 0 0 118.52c0,8.39 2.76,14.21 8.3,17.46 4.19,2.55 13.14,3.79 26.85,3.79l81.96 0 0.03 23.69zm329.73 -37.09c0,24.71 -18.51,37.06 -55.54,37.06l-51.1 0c-17.87,0 -31.24,-2.71 -40.04,-8.15 -10.65,-6.54 -15.96,-16.06 -15.96,-28.62l0 -89.12c0,-12.42 5.41,-22.05 16.27,-28.91 8.62,-5.66 21.85,-8.49 39.73,-8.49l51.44 0c36.79,0 55.2,12.47 55.2,37.4l0 88.83zm-33.27 -5.89l0 -76.1c0,-7.62 -2.33,-12.91 -6.97,-15.91 -4.66,-3.01 -12.26,-4.46 -22.94,-4.46l-35.47 0c-10.87,0 -18.61,1.46 -23.24,4.46 -4.66,3.01 -6.96,8.3 -6.96,15.91l0 75.45c0,6.76 2.54,11.93 7.64,15.52 4.17,2.84 11.69,4.24 22.56,4.24l35.47 0c10.43,0 18,-1.4 22.78,-4.24 4.76,-2.81 7.13,-7.76 7.13,-14.87zm383.71 -53.55c0,10.87 -4.48,19.45 -13.41,25.71 -8.95,6.28 -21.17,9.4 -36.66,9.4l-82.71 0 0 61.41 -33.76 0 0 -163.8 114.76 0c14.79,0 26.9,2.67 36.14,8 9.96,5.87 15.06,13.92 15.3,24.15 0.22,11.01 0.34,22.7 0.34,35.12zm-33.8 -7.68l0 -19.43c0,-10.98 -8.97,-16.49 -26.97,-16.49l-71.98 0 0 54.4 71.1 0c18.58,0 27.85,-6.19 27.85,-18.48zm448.08 105.01l-32.26 0 0 -128.54 -59.58 114.47c-5.77,11.23 -13.88,16.86 -24.28,16.86 -6.23,0 -11.33,-1.65 -15.28,-4.89 -3.1,-3.23 -5.67,-6.91 -7.64,-10.94l-60.95 -115.49 0 128.54 -32.26 0 0 -142.24c0,-6.21 2.55,-11.35 7.64,-15.43 5.1,-4.1 12.17,-6.1 21.22,-6.1 13.7,0 23.09,5.07 28.19,15.15l58.74 115.79 59.75 -115.93c5.33,-10.26 14.6,-15.34 27.85,-15.34 9.26,0 16.39,2.08 21.37,6.28 4.85,3.9 7.62,9.84 7.49,16.08l0 141.75zm327.51 -70.55l-110.18 0 0 27.6c0,12.2 9.86,18.29 29.53,18.29l87.26 0 0 23.87 -96.43 0c-16.64,0 -29.59,-2.8 -38.87,-8.34 -10.18,-6.21 -15.28,-14.97 -15.28,-26.3l0 -91.94c0,-11.3 4.54,-20.2 13.58,-26.67 9.07,-6.5 21.58,-9.73 37.52,-9.73l99.48 0 0 23.84 -87.6 0c-19.45,0 -29.19,5.99 -29.19,17.94l0 27.94 110.18 0 0 23.5zm364.87 50.13c0.12,5.91 -2.42,11.56 -6.96,15.35 -5.1,4.58 -11.96,6.87 -20.57,6.87 -8.03,0 -14.24,-1.72 -18.67,-5.22 -1.94,-1.53 -5.33,-5.97 -10.18,-13.25l-78.58 -115.12 0 131.3 -32.26 0 0 -139.81c0,-15.88 9.15,-23.84 27.51,-23.84 8.36,0 14.69,1.7 18.98,5.1 2.38,1.79 5.89,6.23 10.53,13.19l77.92 114.95 0 -131.71 32.26 0 0 142.21 0.02 -0.03zm316.15 -120.33l-57.72 0 0 139.93 -33.78 0 0 -139.93 -57.38 0 0 -23.84 148.9 0 -0.03 23.84z"/>
 </g>
</svg>
